<?xml version="1.0" standalone="no"?>
<!DOCTYPE svg PUBLIC "-//W3C//DTD SVG 20010904//EN"
 "http://www.w3.org/TR/2001/REC-SVG-20010904/DTD/svg10.dtd">
<svg version="1.0" xmlns="http://www.w3.org/2000/svg"
 width="520.000000pt" height="520.000000pt" viewBox="0 0 520.000000 520.000000"
 preserveAspectRatio="xMidYMid meet">
<metadata>
Created by potrace 1.14, written by Peter Selinger 2001-2017
</metadata>
<g transform="translate(0.000000,520.000000) scale(0.100000,-0.100000)"
fill="#000000" stroke="none">
<path d="M2750 4586 c0 -2 7 -7 16 -10 8 -3 12 -2 9 4 -6 10 -25 14 -25 6z"/>
<path d="M2505 4391 c-125 -38 -154 -54 -218 -119 -66 -67 -137 -160 -137
-179 0 -10 -7 -12 -19 -8 -15 5 -18 2 -14 -13 8 -32 -87 -123 -119 -114 -5 1
-8 -5 -8 -13 0 -8 -4 -15 -10 -15 -5 0 -10 -11 -10 -25 0 -16 -6 -25 -15 -25
-12 0 -13 -4 -5 -19 13 -25 5 -46 -35 -93 -29 -34 -31 -42 -29 -107 2 -88 -25
-191 -76 -292 -22 -42 -37 -79 -33 -82 3 -3 -7 -22 -22 -41 l-27 -36 35 15
c25 10 38 11 42 4 8 -12 -1 -23 -18 -25 -35 -3 -58 -19 -63 -43 -4 -14 -14
-34 -22 -43 -17 -21 -40 -25 -25 -5 14 17 22 67 12 67 -5 0 -9 -9 -9 -19 0
-11 -15 -28 -35 -41 -19 -12 -36 -29 -37 -38 0 -9 -2 -22 -2 -28 -1 -6 -14
-27 -29 -47 -28 -37 -34 -53 -17 -42 17 10 11 -7 -9 -29 -10 -12 -42 -64 -70
-117 l-50 -96 21 -21 c18 -18 19 -23 8 -37 -7 -9 -19 -14 -26 -11 -7 3 -16 1
-19 -4 -3 -4 0 -10 7 -12 15 -5 1 -28 -18 -28 -8 0 -14 7 -14 15 0 8 -4 15
-10 15 -5 0 -10 -6 -10 -14 0 -8 -14 -29 -31 -47 -40 -43 -156 -219 -191 -289
-23 -46 -28 -68 -28 -137 l0 -83 -46 0 -45 0 -29 -63 c-54 -119 -119 -332
-150 -487 -52 -266 -66 -297 -205 -440 -82 -85 -107 -118 -124 -164 -30 -80
-48 -209 -50 -348 -2 -103 0 -117 13 -112 19 7 22 -16 4 -34 -9 -9 186 -12
880 -12 786 0 892 2 892 15 0 8 7 15 16 15 8 0 28 13 44 28 26 26 29 27 33 10
9 -35 55 -18 117 44 32 32 63 58 69 58 6 0 14 12 17 27 4 15 20 37 35 50 15
13 47 52 70 86 43 63 157 293 200 402 13 33 29 67 35 75 7 8 13 20 14 25 1 6
8 21 16 35 13 24 13 24 14 3 0 -12 -5 -34 -11 -50 -7 -20 -7 -29 1 -31 8 -3 8
-8 0 -17 -8 -10 -8 -15 0 -20 8 -5 8 -11 -1 -21 -9 -11 -9 -14 1 -14 7 0 10
-8 7 -19 -3 -12 1 -22 9 -25 8 -3 13 -9 13 -13 -1 -4 0 -15 4 -23 5 -13 8 -28
21 -90 2 -8 6 -22 9 -30 3 -8 8 -35 12 -59 7 -50 58 -128 107 -162 26 -19 40
-21 106 -17 47 3 95 13 122 25 88 40 169 151 190 262 19 101 -20 375 -75 525
-14 38 -22 72 -19 77 3 5 0 9 -6 9 -7 0 -10 6 -8 12 3 7 -4 21 -14 30 -10 10
-18 15 -18 11 0 -3 -11 4 -25 17 -30 29 -33 50 -5 43 19 -5 19 -4 5 31 -8 19
-15 43 -15 51 0 9 -7 23 -16 32 -8 9 -13 22 -10 29 3 8 1 14 -4 14 -6 0 -10 9
-10 20 0 11 -4 20 -9 20 -5 0 -36 50 -70 110 -84 150 -106 181 -118 169 -15
-15 -3 337 13 362 3 5 0 9 -6 9 -13 0 -4 98 10 114 5 5 4 16 -2 26 -8 13 -6
33 8 81 17 54 18 68 7 89 -10 21 -10 26 1 28 15 3 26 84 14 105 -3 7 -9 39
-13 72 -3 33 -14 90 -23 127 -9 37 -13 70 -10 73 3 4 15 1 27 -7 16 -10 23
-10 33 0 9 9 7 12 -10 12 -12 0 -22 4 -22 10 0 5 -4 9 -10 7 -5 -1 -22 11 -37
28 l-28 30 25 26 c14 14 49 54 78 88 29 33 64 64 78 67 13 3 24 11 24 16 0 11
18 29 77 78 103 87 186 109 336 88 47 -6 73 -5 107 6 25 8 77 18 116 21 66 6
72 5 77 -14 8 -33 24 -25 30 17 6 38 -3 95 -20 126 -16 29 -114 125 -134 131
-11 4 -17 10 -14 14 7 12 -70 39 -143 52 -34 6 -62 15 -62 19 0 4 -13 13 -30
19 -18 6 -30 6 -30 0 0 -5 -8 -9 -17 -9 -9 0 -13 3 -9 7 11 11 -112 43 -165
43 -37 0 -50 5 -74 30 -16 17 -34 30 -39 30 -6 0 -31 18 -55 41 -59 55 -153
96 -291 127 -14 3 -35 11 -46 19 -12 8 -51 16 -87 18 -56 4 -71 2 -108 -20
-24 -14 -52 -25 -62 -25 -10 0 -31 -10 -47 -21 -18 -14 -35 -19 -46 -15 -14 5
-15 9 -5 15 7 5 13 12 12 17 0 5 19 21 41 37 51 34 37 33 -77 -2z"/>
<path d="M2169 4183 c-13 -16 -12 -17 4 -4 9 7 17 15 17 17 0 8 -8 3 -21 -13z"/>
<path d="M2050 4030 c0 -5 7 -10 16 -10 8 0 12 5 9 10 -3 6 -10 10 -16 10 -5
0 -9 -4 -9 -10z"/>
<path d="M1645 3169 c-4 -6 -5 -12 -2 -15 2 -3 7 2 10 11 7 17 1 20 -8 4z"/>
<path d="M2633 645 c0 -6 16 -12 34 -13 41 -3 36 14 -5 20 -17 2 -29 -1 -29
-7z"/>
<path d="M2481 454 c0 -11 3 -14 6 -6 3 7 2 16 -1 19 -3 4 -6 -2 -5 -13z"/>
<path d="M2410 420 c-20 -6 -14 -8 25 -8 37 -1 45 2 30 8 -24 10 -23 10 -55 0z"/>
</g>
</svg>
